<?xml version="1.0" encoding="utf-8"?>
<!-- Generator: Adobe Illustrator 16.0.1, SVG Export Plug-In . SVG Version: 6.00 Build 0)  -->
<!DOCTYPE svg PUBLIC "-//W3C//DTD SVG 1.1//EN" "http://www.w3.org/Graphics/SVG/1.1/DTD/svg11.dtd">
<svg version="1.1" id="Layer_1" xmlns="http://www.w3.org/2000/svg" xmlns:xlink="http://www.w3.org/1999/xlink" x="0px" y="0px"
	 width="67.357px" height="34.494px" viewBox="0 0 67.357 34.494" enable-background="new 0 0 67.357 34.494" xml:space="preserve">
<path fill="#333333" d="M51.983,34.494c8.792,0,15.374-4.9,15.374-12.396c0-7.639-5.477-11.914-13.74-11.914
	c-6.583,0-10.858,2.594-13.549,7.447C39.684,8.503,47.612,1.92,61.015,1.152V0.335C46.843,0.576,34.88,5.956,34.88,18.688
	C34.88,28.345,41.126,34.494,51.983,34.494 M17.104,34.494c8.792,0,15.375-4.9,15.375-12.396c0-7.639-5.477-11.914-13.741-11.914
	c-6.583,0-10.858,2.594-13.549,7.447C4.804,8.503,12.732,1.92,26.136,1.152V0.335C11.963,0.576,0,5.956,0,18.688
	C0,28.345,6.246,34.494,17.104,34.494"/>
</svg>
