<?xml version="1.0" encoding="utf-8"?>
<!-- Generator: Adobe Illustrator 16.0.1, SVG Export Plug-In . SVG Version: 6.00 Build 0)  -->
<!DOCTYPE svg PUBLIC "-//W3C//DTD SVG 1.1//EN" "http://www.w3.org/Graphics/SVG/1.1/DTD/svg11.dtd">
<svg version="1.1" id="Layer_1" xmlns="http://www.w3.org/2000/svg" xmlns:xlink="http://www.w3.org/1999/xlink" x="0px" y="0px"
	 width="67.357px" height="34.494px" viewBox="0 0 67.357 34.494" enable-background="new 0 0 67.357 34.494" xml:space="preserve">
<g>
	<g>
		<path fill="none" d="M50.456,33.081c8.086,0,14.138-4.507,14.138-11.397c0-7.026-5.036-10.958-12.637-10.958
			c-6.053,0-9.985,2.385-12.459,6.847C39.145,9.178,46.434,3.125,58.76,2.419V1.667C45.728,1.889,34.726,6.837,34.726,18.546
			C34.726,27.426,40.47,33.081,50.456,33.081 M18.379,33.081c8.085,0,14.138-4.507,14.138-11.397
			c0-7.026-5.036-10.958-12.637-10.958c-6.052,0-9.986,2.385-12.46,6.847C7.068,9.178,14.358,3.125,26.685,2.419V1.667
			C13.651,1.889,2.649,6.837,2.649,18.546C2.649,27.426,8.393,33.081,18.379,33.081"/>
		<g>
			<g>
				<g>
					<path fill="#1F1F1F" d="M18.379,33.746c0.074-0.086,0.034-0.278-0.173-0.248l-0.15,0.326L18.379,33.746z"/>
					<path fill="#1F1F1F" d="M17.016,33.084c-0.246,0.152-0.547,0.423-0.41,0.732c0.263-0.309,0.313-0.174,0.59-0.543
						c0.205-0.031,0.353,0.119,0.314,0.239c0.074-0.082,0.318,0.084,0.434-0.119c-0.263-0.266-0.591-0.288-0.955-0.09
						C16.918,33.229,16.996,33.145,17.016,33.084z"/>
					<path fill="#1F1F1F" d="M3.362,21.562c0,0-0.021,0.129-0.018,0.129C3.356,21.654,3.362,21.61,3.362,21.562z"/>
					<path fill="#1F1F1F" d="M5.812,10.322C5.768,10.4,5.775,10.45,5.797,10.47C5.824,10.39,5.846,10.322,5.812,10.322z"/>
					<path fill="#1F1F1F" d="M7.347,9.041c-0.034,0.026-0.062,0.047-0.093,0.07C7.306,9.1,7.347,9.078,7.347,9.041z"/>
					<path fill="#1F1F1F" d="M3.362,21.562l0.062-0.332C3.315,21.224,3.366,21.404,3.362,21.562z"/>
					<path fill="#1F1F1F" d="M14.159,33.554c0.073-0.001,0.136-0.021,0.197-0.05l-0.176,0.001L14.159,33.554z"/>
					<path fill="#1F1F1F" d="M5.394,26.287l0.048,0.081c0.046,0.003,0.098,0.001,0.153-0.006L5.394,26.287z"/>
					<path fill="#1F1F1F" d="M7.995,29.15c-0.06-0.065-0.261,0.133-0.366,0.204c0.113-0.056,0.199-0.057,0.272-0.023
						C7.936,29.29,7.967,29.233,7.995,29.15z"/>
					<path fill="#1F1F1F" d="M13.466,32.256l0.122-0.016C13.556,32.245,13.504,32.251,13.466,32.256z"/>
					<path fill="#1F1F1F" d="M4.264,23.737c0.038-0.02,0.067-0.045,0.084-0.065C4.315,23.683,4.287,23.707,4.264,23.737z"/>
					<path fill="#1F1F1F" d="M23.463,33.778c-0.002-0.021-0.01-0.031-0.013-0.048C23.431,33.765,23.428,33.785,23.463,33.778z"/>
					<path fill="#1F1F1F" d="M18.379,33.009l0.066-0.018c0.006-0.054,0.014-0.106,0.013-0.158L18.379,33.009z"/>
					<path fill="#1F1F1F" d="M10.328,7.085c-0.007,0.002-0.009,0.003-0.015,0.004C10.254,7.169,10.294,7.135,10.328,7.085z"/>
					<path fill="#1F1F1F" d="M10.598,7.067c0.486-0.097-0.29,0.69,0.375,0.471C10.849,7.502,11.106,6.833,10.598,7.067z"/>
					<path fill="#1F1F1F" d="M14.056,33.496c-0.058-0.009-0.116-0.018-0.175-0.032C13.959,33.489,14.013,33.499,14.056,33.496z"/>
					<path fill="#1F1F1F" d="M10.973,7.539l0.002,0.002l0.066-0.024C11.013,7.526,10.997,7.531,10.973,7.539z"/>
					<path fill="#1F1F1F" d="M18.014,3.858c-0.029-0.044-0.07-0.074-0.113-0.103C17.91,3.783,17.938,3.813,18.014,3.858z"/>
					<path fill="#1F1F1F" d="M11.9,5.539l0.16-0.03C11.992,5.511,11.942,5.524,11.9,5.539z"/>
					<path fill="#1F1F1F" d="M21.215,2.889c0.089,0.009,0.123,0.043,0.236-0.011c-0.014-0.013-0.025-0.021-0.041-0.029
						C21.372,2.893,21.318,2.919,21.215,2.889z"/>
					<path fill="#1F1F1F" d="M24.687,2.551c-0.021-0.021-0.045-0.035-0.068-0.054c-0.035,0.006-0.075,0.014-0.11,0.02L24.687,2.551z
						"/>
					<path fill="#1F1F1F" d="M32.57,26.751c-0.107,0.046-0.204,0.058-0.301,0.055C32.471,26.837,32.269,27.39,32.57,26.751z"/>
					<path fill="#1F1F1F" d="M14.186,33.397c-0.034,0.066-0.071,0.095-0.13,0.099l0.124,0.009
						C14.198,33.466,14.207,33.428,14.186,33.397z"/>
					<path fill="#1F1F1F" d="M21.065,0.669l0.583-0.041C21.482,0.625,21.271,0.64,21.065,0.669z"/>
					<path fill="#1F1F1F" d="M17.908,9.682l0.135-0.041C17.989,9.638,17.941,9.649,17.908,9.682z"/>
					<path fill="#1F1F1F" d="M23.361,0.427c0.112,0.09,0.225,0.138,0.342,0.165c0.022-0.024,0.048-0.044,0.061-0.078L23.361,0.427z"
						/>
					<path fill="#1F1F1F" d="M32.265,26.806h0.003H32.265z"/>
					<path fill="#1F1F1F" d="M30.29,30.503c0.46-0.405-0.047-0.457-0.102-0.693c0.403-0.587,0.419-0.051,0.724-0.103
						c0.25-0.396,0.198-0.876,0.396-1.137c0.063,0.018,0.119-0.021,0.135,0.085c0.016-0.283,0.24-0.546,0.406-0.865
						c0.167-0.315,0.332-0.648,0.3-0.965c0.048-0.02,0.086-0.024,0.116-0.02c-0.209-0.008-0.381-0.084-0.492-0.159
						c0.114-0.226-0.023-0.521,0.238-0.507c-0.067,0.14,0.017,0.191,0.056,0.291l0.01-0.289c0.413-0.081-0.035,0.385,0.196,0.497
						c0.105-0.55,0.104-1.194,0.282-1.552c0.174,0.011,0.134,0.247,0.104,0.428c-0.038,0.177-0.075,0.3,0.173,0.097l-0.368,0.54
						c0.688-0.246-0.19,0.351,0.518,0.152c0.454-0.771,0.159-0.975,0.514-1.771c-0.132-0.228-0.285-0.003-0.424-0.229
						c-0.155-1.202,1.05-0.796,0.646-1.742c-0.216-0.248-0.63-0.346-0.385-0.948l0.38,0.212c0.029-0.818-0.564-0.444-0.338-1.287
						c0.157,0.135,0.156,0.618,0.196,0.495c0.274-0.563-0.229-0.373-0.261-0.782l0.326-0.121c-0.156-0.861-0.569-1.753-0.941-2.624
						c0.114,0.016,0.273,0.14,0.292-0.107c-0.521-1.114-1.039-2.413-1.668-3.495l-0.52-0.162c-0.066-0.083-0.031-0.241,0.086-0.191
						c-0.235-0.427-0.147,0.104-0.387,0.023c-0.203-0.165-0.133-0.359,0.052-0.305c-0.761-0.449-2.086-1.066-2.672-1.731
						l0.185,0.009c-0.52-0.455-0.931,0.203-1.343-0.31l0.125,0.001c-1.245-0.692-2.786-0.818-3.754-1.4
						c-0.254,0.355-1.345-0.345-1.487,0.225c-0.755-0.355-0.524-0.427-1.637-0.667c-0.299-0.027-0.441,0.386-0.8,0.462L19.148,9.55
						l-0.48,0.349l-0.288-0.354l-0.338,0.097c0.138,0.011,0.301,0.123,0.287,0.212c-0.516,0.138-1.318-0.088-1.361-0.234
						l-1.227,0.47c0.001-0.126,0.206-0.204,0.361-0.31c-0.618,0.428-0.194-0.306-0.758,0.102c0.099,0.044-0.002,0.192-0.001,0.257
						c-0.347-0.091-1.055,0.122-1.541,0.354l0.028-0.231c-0.488,0.089-0.943,0.388-1.421,0.631
						c-0.236,0.128-0.476,0.259-0.717,0.391l-0.688,0.471c0.387-0.138,0.498,0.229,0.257,0.432l-0.284-0.201
						c-0.06,0.281,0.342-0.081,0.13,0.356c-0.352,0.19-0.439-0.151-0.299-0.373l-0.352,0.372c-0.082-0.062-0.015-0.169-0.062-0.287
						c-0.025,0.143-0.262,0.189-0.483,0.283c-0.211,0.104-0.424,0.236-0.42,0.47l-0.085-0.053c-0.414,0.38-0.711,0.665-0.949,0.96
						c-0.221,0.31-0.421,0.6-0.701,0.951c0.208,0.189-0.062,0.419-0.045,0.754c-0.41,0.457-0.948,0.931-1.343,1.57
						c0.722,0.17,1.444,0.341,2.251,0.532l0-0.065c-0.131-0.461-0.235-0.129-0.398-0.339c0.257-0.041,0.242-0.701,0.421-0.354
						c-0.056-0.797,0.019-0.993-0.069-2.033c-0.117,0.089-0.179,0.207-0.256,0.126c-0.029-0.197,0.195-0.394,0.304-0.342
						l0.014,0.052C8.6,13.98,8.911,13.364,9.328,12.872c0.354-0.525,0.778-0.931,0.756-1.452l0,0.057c0,0,0.042-0.239,0.106-0.473
						c0.079-0.228,0.157-0.457,0.157-0.457c0.286-0.324,0.009,0.318,0.323,0.152c0.106-0.529,0.356-0.849,0.647-1.091
						c0.288-0.248,0.523-0.498,0.746-0.871c0.514,0.071,0.881-0.337,1.338-0.723c0.458-0.377,0.91-0.842,1.428-0.833l-0.136-0.127
						c0.105-0.263,0.29-0.051,0.452-0.099c-0.089-0.108-0.292-0.014-0.219-0.168c1.577-1.174,3.739-1.501,5.692-1.835
						c0.72-0.118,0.196-0.986,1.208-0.772l-0.191,0.379c0.682-0.37,1.448-0.48,2.207-0.575c0.755-0.123,1.52-0.14,2.245-0.378
						c-0.082,0.083-0.077,0.182-0.221,0.193c0.213,0.137,0.627,0.061,0.894-0.063l1.463-0.682l-0.22-0.635
						c-0.055-0.16-0.129-0.271-0.199-0.272c0.022-0.238,0.178-0.056,0.277-0.202c0.037-0.084,0.034-0.179,0.013-0.277l-0.347-1.673
						l-1.087,0.263c-0.287,0.07-0.589,0.282-0.725,0.11c-0.032-0.038,0.091-0.081,0.151-0.102c-0.213,0.125-1.011,0.011-0.792,0.279
						c-0.594-0.105-1.115,0.158-1.593,0.047c-0.28,0.335-1.019-0.059-1.074,0.386c-0.001-0.454-1.07-0.278-1.409,0.004
						c0.106-0.153-0.34-0.094-0.22-0.303c-0.422,0.067-0.799,0.206-0.69,0.425c-0.871-0.44-1.474,0.692-2.039,0.1
						c-1.206,0.464-2.29,0.967-3.35,1.378c-0.101-0.465,1.2-0.381,1.024-0.829c-1.016,0.446-1.473,1.049-2.521,1.298
						c-0.285,0.035,0.08-0.236,0.143-0.34c-0.488,0.253-0.975,0.458-1.445,0.669c-0.467,0.217-0.938,0.392-1.306,0.746
						c-0.017-0.039,0.055-0.131,0.127-0.21c-0.162,0.106-0.424,0.16-0.31,0.33l0.138-0.14c0.399,0.118-0.371,0.917-0.317,1.067
						c-0.008-0.668-0.899,0.332-0.829-0.557C9.532,4.713,9.444,4.874,9.54,4.977C9.357,5.034,9.261,4.996,9.347,4.77
						C8.816,5.232,9.151,5.294,8.633,5.641C8.577,5.558,8.659,5.454,8.648,5.32C8.492,5.664,8.35,6,7.87,6.233
						C7.859,6.167,7.762,6.141,7.891,6.052C7.524,6.319,7.336,6.708,7.1,7.035C6.882,7.385,6.596,7.66,6.215,7.976
						C6.101,7.458,5.888,8.129,5.577,7.917L5.297,8.4l0.281-0.044C5.261,8.711,5.18,9.17,4.875,9.442L4.95,9.06L4.509,9.833
						l0.396-0.33c-0.108,0.501,0.411,0.235-0.015,0.677c0.038-0.121-0.257,0.371-0.58,0.456v-0.002
						c-0.041,0.244-0.006,0.525-0.246,0.779c-0.145,0.024-0.333-0.257-0.429-0.242c0.179,0.349-0.42,1.027-0.224,1.417
						c-0.044-0.12-0.215-0.197-0.269-0.185l0.174,0.275c-0.144,0.173-0.19,0.191-0.325,0.102c-0.25,0.602,0.509-0.031,0.075,0.625
						c-0.001-0.063-0.046-0.048-0.042-0.18c-0.172,0.349-0.252,0.717-0.33,1.071c-0.044,0.363-0.066,0.719-0.196,1.053
						c-0.409,0.136,0.025-0.629-0.33-0.458c-0.057,0.521-0.07,1.066-0.04,1.598c0.06,0.535,0.103,1.053,0.029,1.542l0.052-0.182
						c0.526,0.147-0.325,0.723-0.032,1.223c-0.044-0.12-0.301-0.153-0.24-0.121c-0.062,0.68,0.17,1.385,0.491,2.362L2.28,21.209
						c-0.089,0.415,0.096,1.048,0.139,1.482c0.161,0.095,0.193,0.339,0.353,0.146c-0.257,0.743,0.113,1.327,0.4,1.868
						c0.368,0.522,0.698,1.001,0.708,1.669c-0.074-0.122-0.278-0.238-0.22-0.141l0.627,0.817c0.154-0.191,0.05-0.189,0.098-0.461
						c0.183,0.039,0.412,0.219,0.534,0.426c-0.347-0.299-0.322,0.212-0.302,0.44c0.039-0.066,0.144-0.057,0.192-0.111
						c-0.021,0.655,0.431-0.2,0.628,0.521L5.32,27.911c0.21,0.172,0.466,0.269,0.643,0.486c-0.119,0.263-0.287-0.118-0.465,0.009
						c0.294,0.291,0.914,0.229,0.97,0.675c-0.169-0.07-0.338-0.245-0.509-0.319c0.045,0.505,0.14,0.487,0.312,0.739l-0.016-0.026
						c-0.017,0.016,0.427,0.567,0.427,0.567L6.6,29.862c0.847-0.208,0.864,0.6,1.707,0.581c-0.788-0.006-0.233,0.146-0.445,0.368
						c0.098,0.167,0.273,0.396,0.163,0.425c0.409-0.03,0.356,0.494,0.955,0.39c-0.029,0.095,0.307,0.171,0.126,0.353
						c0.418,0.133-0.012-0.197,0.08-0.288c0.372-0.003,0.65,0.287,1.005,0.525c0.354,0.234,0.763,0.474,1.275,0.431
						c0.83,0.055,1.062-0.223,1.792-0.183c0.202,0.204-0.279,0.3-0.279,0.29c0.349,0.247,0.66,0.26,1.048,0.229
						c-0.09,0.068-0.028,0.154,0.066,0.284c0.305,0.034,0.261-0.31,0.627-0.091c-0.083,0.094-0.198,0.248-0.363,0.327
						c0.371-0.005,0.751-0.16,1.126-0.203c0.078,0.18-0.253,0.23-0.4,0.325c0.429-0.027,1.099-0.03,1.248-0.284l-0.254-0.125
						c0.15,0.004,0.056,0.238-0.06,0.274c-0.377,0.17-0.502-0.15-0.509-0.249l0.267-0.033c-0.196-0.603-1.047-0.006-1.566-0.167
						l0.287-0.367l-0.588,0.234c-0.092-0.128-0.117-0.37,0.145-0.381c-0.319-0.272-0.353,0.08-0.614-0.205
						c-0.025-0.041-0.006-0.058,0.029-0.067c-0.001,0.008-0.378,0.043-0.377,0.035c0.089-0.064,0.016-0.301,0.211-0.182
						c-0.544-0.409-1.075,0.011-1.214-0.358l0.059-0.009c-0.888-0.14-0.177,0.275-0.937,0.372c0,0-0.039-0.219-0.077-0.437
						c-0.034-0.216-0.067-0.433-0.067-0.433l-0.198,0.25c-0.081-0.044-0.24-0.132-0.16-0.231c-0.402,0.064,0.001,0.144-0.264,0.25
						c-0.285-0.433-1.16-0.451-1.014-0.917c-0.257,0.128,0.289,0.353-0.213,0.273c0.137-0.5-0.513-0.213-0.726-0.639
						c0.254-0.156,0.485,0.17,0.289-0.25c-0.453,0.24-0.594-0.494-0.878-0.65c-0.228,0.262-0.677-0.321-1.14-0.647
						c0.12-0.073-0.617-0.881-0.784-1.397l0.057-0.024c-0.339,0.137-0.646-0.313-0.898-0.617c0.195-0.107,0.298-0.089,0.493,0.029
						c-0.008,0.006-0.188-0.306-0.188-0.306c-0.142-0.011-0.253-0.075-0.41-0.259l0.283-0.061c-0.27-0.385-0.759-0.694-0.84-1.345
						c-0.253,0.06-0.439,0.758-0.884,0.188c0.117-0.076,0.326-0.188,0.452-0.048c-0.041-0.046-0.193-0.146-0.186-0.276l0.327,0.158
						c-0.022-0.303-0.248-0.062-0.313-0.288c0.186-0.066,0.078-0.213,0.235-0.236c0.037,0.048-0.018,0.222,0.096,0.271
						c-0.068-0.252-0.042-0.594,0.064-0.735c-0.1,0.058-0.251,0.087-0.335-0.085c-0.168-0.46,0.174-0.23,0.182-0.524
						c-0.179-0.069-0.104-0.408-0.392-0.343c-0.03-0.141,0.098-0.198,0.164-0.271c-0.181-0.213-0.294-1.134-0.541-0.8L3.336,21.78
						c-0.007-0.011-0.014-0.023-0.022-0.038c0,0.003,0,0,0,0.003l0-0.003c-0.416-0.794-0.083-1.753-0.214-2.571l0.099-0.002
						c-0.157-0.495-0.067-1.101-0.254-1.468c0.009-0.15,0.201-0.338,0.314-0.268c-0.05-0.38-0.163-0.438,0.038-0.965
						c0.143,0.397,0.158-0.112,0.1,0.401c0.099-0.483,0.318-0.551,0.137-1.108c0.216,0.215,0.381-0.296,0.348-0.534l-0.239,0.293
						c0.012-0.261,0.076-0.479,0.139-0.7l0.301,0.199c0.269-0.43,0.296-0.855,0.277-1.296c-0.001-0.429,0.009-0.854,0.504-1.035
						c-0.097-0.326-0.385,0.405-0.533,0.094c0.249-0.398,0.882-0.602,0.941-0.72c0.416-0.449-0.181-0.748,0.298-1.219
						c-0.145,0.002-0.46-0.097-0.269-0.577c0.303-0.368,0.72-0.177,0.639,0.114c-0.052,0.095-0.112,0.117-0.142,0.089
						c-0.047,0.146-0.111,0.332,0.095,0.257l-0.066-0.115c0.225-0.115,0.555-0.627,0.628-0.39c0.13-0.32-0.077-0.243-0.261-0.069
						C6.675,9.807,6.786,9.48,7.255,9.111C7.146,9.135,6.986,9.106,7.05,9.036c0.684-0.549,0.1-0.44,0.505-0.892
						c0.38-0.093,0.201,0.398,0.549-0.109c0.354-0.148,0.262,0.189,0.221,0.354c0.248-0.533,0.839-0.542,1.121-0.663L9.276,7.961
						c0.102-0.14,0.215-0.216,0.33-0.295l-0.272-0.1c0.161-0.062,0.276-0.141,0.33-0.058C9.716,7.283,9.326,7.263,9.488,6.89
						c0.252-0.028,0.498-0.504,0.729-0.284C9.582,6.921,10.45,6.83,9.996,7.209c0.072-0.095,0.186-0.174,0.343-0.233
						c0.039,0.016,0.016,0.069-0.012,0.109c0.702-0.119,0.072-0.46,0.684-0.804c0.011,0.198,0.307,0.215,0.386,0.127
						c-0.244,0.132-0.263-0.192-0.099-0.44c0.46-0.096,0.38-0.335,0.601-0.429c-0.003-0.007-0.27,0.07-0.27,0.07
						c-0.002-0.208,0.213-0.292,0.486-0.467c0.084,0.114-0.226,0.204-0.094,0.212c0.195-0.428,0.868-0.032,1.231-0.424
						c0.255,0.018,0.148,0.3,0.36,0.294c0.419-0.425,0.641,0.024,1.113-0.351c-0.236-0.17-0.247-0.104,0.063-0.46l-0.845,0.474
						l0.46-0.529c-0.277,0.094-0.527,0.343-0.705,0.363c0.207-0.279,0.202-0.214-0.003-0.352c0.503,0.203,0.681-0.459,1.201-0.386
						l0.174,0.565c0.713,0.006,1.077-0.644,1.982-0.745L16.752,3.78c0.056-0.259,0.527-0.178,0.787-0.347
						c0.019,0.196,0.212,0.225,0.362,0.322c-0.047-0.14,0.644-0.117,0.644-0.52l0.446,0.175c0.726-0.043,0.711-0.725,1.426-0.754
						c-0.176,0.242,0.16,0.335-0.279,0.553c0.231-0.031,0.444-0.025,0.427-0.161c0.152,0.104,0.605-0.355,0.845-0.2
						c0.086-0.1,0.092-0.31,0.356-0.332c0.034,0.036,0.011,0.097,0.011,0.097c-0.012-0.101,0.396-0.186,0.141-0.375
						c0.791,0.552,2.03-0.243,2.701,0.258c0.51-0.086,1.127-0.175,1.594-0.208c-0.027,0.06,0.001,0.098-0.087,0.082
						c0.36,0.087,0.438-0.102,0.566-0.258c-0.146-0.144-0.299-0.294-0.452-0.445c0.12,0.102,0.218,0.236,0.127,0.566
						c-0.319,0.38-0.173-0.395-0.294-0.157c-0.237,0.037-0.29,0.167-0.278,0.343c0.26-0.276,0.55-0.582,0.839-0.889
						c-0.307,0.046-0.733,0.292-1.075,0.081l0.12-0.049c-0.411-0.18-0.93,0.313-1.564,0.35c0,0,0.024-0.062-0.007-0.098
						c-0.393,0.393-1.184,0.62-1.769,0.8c0.143-0.278,0.251-0.173,0.092-0.411c-0.263,0.083,0.147,0.384-0.371,0.562
						c-0.197-0.1-0.606-0.136-0.714-0.395l0.506-0.125C21.52,1.952,21.193,2.4,20.914,2.396l0-0.159
						c-0.774,0.217-0.69,0.591-1.514,0.808l0.116,0.089c-0.336,0.502-0.436-0.102-0.796,0.304l-0.254-0.337
						c-0.277,0.159-0.896,0.729-1.381,0.98c0.183-0.381,0.741-0.751,1.068-1.055c-0.292,0.103-0.979,0.396-1.058,0.632
						c0.103-0.079,0.215-0.224,0.351-0.21c-0.243,0.436-0.655,0.709-1.202,0.967c-0.208-0.729-1.53,0.462-2.185,0.216
						c-0.819,0.784-1.957,1.049-2.941,1.956c0.736,0.144-0.276,0.268,0.191,0.671c-0.195,0.226-0.286,0.292-0.333,0.281
						c0,0-0.239,0.073-0.456,0.18c-0.22,0.107-0.44,0.213-0.44,0.213C9.8,7.976,10.177,7.625,10.06,7.55
						C9.567,8.023,9.679,7.584,9.248,7.818c0.229,0.077,0.072,0.38-0.246,0.625l0.579-0.23C9.205,9.109,8.67,8.547,8.345,9.518
						l0.02-0.36c-0.238,0.439-0.974,1.612-0.75,2.246c-0.096,0.05-0.293,0.09-0.251-0.132c-0.242,0.547-0.419,1.202-0.473,1.833
						c-0.046,0.636-0.167,1.199-0.348,1.629l-0.135-0.113c0.013,0.228,0.226,0.42,0.041,0.671c-0.059-0.021-0.136-0.107-0.159-0.006
						c0.046,0.125,0.161,0.604,0.086,0.886l-0.161-0.259c-0.139,0.698,0.039,1.215,0.213,1.702l1.325,3.691l0.535-3.251
						c0.047-0.288,0.098-0.583,0.239-0.881c0.387,0.245,0.871-0.357,1.183-0.58l0.041,0.047c0.379-0.395,0.581-0.832,0.816-1.243
						c0.254-0.388,0.491-0.803,0.825-1.228c0.416,0.003,0.89-0.243,1.384-0.551c0.518-0.266,1.113-0.506,1.61-0.61
						c-0.167-0.004-0.108-0.341,0.062-0.427c0.263,0.014,0.562-0.489,0.646-0.093l-0.086,0.019c0.297,0.329,0.725,0.071,1.104-0.014
						l-0.051-0.525c0.605,0.295,1.241,0.101,1.857-0.063c0.622-0.111,1.201-0.231,1.496,0.098c0.25-0.15,0.565-0.162,0.822-0.276
						l-0.019,0.283c0.7,0.089,1.041,0.135,1.899,0.168l-0.196,0.184c0.469,0.059,0.711-0.74,1.172-0.672l0.059,0.44
						c0.852,0.14,1.532,0.733,2.423,0.66c-0.036,0.053-0.103,0.159-0.233,0.13c0.384,0.115,1.208,0.864,1.363,0.277
						c-0.169,0.34,0.71,0.437,1.174,0.575l-0.214,0.187c0.498-0.064,0.582-0.141,1.065,0.123c0.069,0.116-0.066,0.245-0.141,0.076
						c0.206,0.396,0.417,0.032,0.693,0.496l-0.266-0.006c0.303,0.306,0.329,0.228,0.645,0.273c0.268,0.14,0.492,0.688,0.3,0.895
						c0.156-0.043,0.459,0.045,0.543,0.302c-0.062,0.079-0.164,0.032-0.214,0.009c0.133,0.341,0.299,0.55,0.477,0.733
						c0.168,0.186,0.34,0.351,0.289,0.645c-0.082,0.045-0.113,0.092-0.125,0.142c-0.185-0.541-0.426-0.933-0.374-0.913
						c-0.225,0.126-0.069,0.534-0.541,0.386c0.344,0.194,0.959,0.621,0.994,1.087c-0.016,0.028-0.032,0.056-0.064,0.083
						l-0.043-0.034c0.015,0.101,0.063,0.181,0.122,0.253c-0.007,0.15-0.016,0.244,0.014,0.377c-0.203,0.105,0.036,0.517,0.038,0.748
						c0.274-0.069,0.272,0.241,0.461-0.081c-0.015,0.04-0.04-0.038-0.073-0.189c-0.015-0.033-0.03-0.071-0.052-0.091l0.029,0.011
						c-0.042-0.146-0.097-0.338-0.16-0.556c0.182,0.141,0.348,0.309,0.259,0.592c0.199,0.083,0.397,0.187,0.496,0.25
						c-0.343,0.4-0.452,1.024-0.71,1.129c0.086,0.345,0.157,0.766,0.213,1.146c0.05,0.381,0.15,0.738,0.4,0.996
						c0.043,0.215-0.188,0.218-0.28,0.28c-0.036-0.123,0.006-0.256-0.073-0.328c0.073,0.413-0.132,1.181,0.189,1.361
						c-0.31,0.457-0.248-0.359-0.389,0.331l-0.082-0.122c-0.447,0.576-0.458,1.12-0.501,1.757c-0.05,0.3-0.111,0.612-0.25,0.912
						c-0.146,0.293-0.416,0.544-0.786,0.741c0.1-0.058,0.148-0.087,0.21-0.067c-0.31,0.323-0.671,0.603-0.961,0.949
						c-0.325,0.314-0.646,0.643-0.989,0.95c-0.704,0.586-1.493,1.12-2.414,1.238c-0.5,0.105-0.444,0.359-0.673,0.634L24.73,31.23
						l-0.379,0.506c-0.314,0.259-0.693,0.174-1.073,0.106c-0.383-0.064-0.756-0.076-1.179,0.232l0.162,0.177
						c-0.346,0.024-1.06,0.318-1.037,0.076c-0.029,0.04-0.083,0.221-0.232,0.131l-0.031-0.156l-0.815,0.36
						c-0.665-0.051,0.05-0.615-0.892-0.605c-0.341,0.072-0.992,0.495-0.861,0.597c0.144,0.003,0.371,0.085,0.386,0.243l-0.332,0.094
						c-0.054,0.468-0.337,0.953,0.536,1.249l0.588-0.306l0.207,0.219l-0.507,0.032c0.298,0.202,0.474,0.008,0.667-0.129
						c0.057,0.116,0.147,0.19,0.271,0.223l0.546-0.506c0.093,0.173-0.227,0.388,0.184,0.444c0.251-0.235-0.311-0.377,0.125-0.561
						c0.31,0.173,0.256,0.371,0.562,0.13c0.065,0.109,0.006,0.198-0.12,0.275c0.278-0.197,0.785-0.206,0.889-0.478
						c0.353,0.218,0.977-0.285,1.054,0.146c0.069-0.128,0.431-0.474,0.691-0.562c-0.333,0.665,1.002-0.296,1.061,0.267
						c0.206-0.55,1.221-0.72,1.717-1.253c-0.014,0.054-0.048,0.152-0.113,0.156c0.36-0.136,0.519-0.08,0.784-0.123
						c-0.153-0.374,0.33-0.721,0.446-1.115c0.591,0.045,0.023,0.547,0.338,0.768c-0.189-0.254,0.503-0.743,0.216-0.864
						c0.431-0.02,0.318-0.087,0.669,0.061c-0.248-0.417,0.21-0.287,0.246-0.713c0.554-0.164,0.41,0.252,0.746-0.244
						C30.559,30.017,30.297,30.508,30.29,30.503z M32.606,17.535l0.005-0.002c0.046,0.107,0.086,0.199,0.111,0.256
						C32.698,17.737,32.664,17.663,32.606,17.535z M32.181,16.484c0.055,0.127,0.127,0.283,0.187,0.455
						c-0.076,0.074-0.184,0.071-0.218-0.036C32.236,16.934,32.192,16.667,32.181,16.484z M31.041,19.172
						c-0.076-0.135-0.034-0.196,0.017-0.229c0.021,0.067,0.051,0.145,0.097,0.247l0.038,0.009
						C31.136,19.196,31.084,19.191,31.041,19.172z"/>
					<path fill="#1F1F1F" d="M31.468,19.361c0.01,0.021,0.023,0.031,0.029,0.06c0.02-0.036,0.039-0.071,0.047-0.104
						c-0.034-0.013-0.068-0.024-0.1-0.036L31.468,19.361z"/>
					<path fill="#1F1F1F" d="M3.342,21.714l0.002-0.022c-0.008,0.019-0.015,0.038-0.03,0.051
						C3.324,21.726,3.333,21.724,3.342,21.714z"/>
					<polygon fill="#1F1F1F" points="19.144,9.479 19.148,9.55 19.243,9.484 					"/>
					<path fill="#1F1F1F" d="M4.618,27.457c-0.014,0.022-0.021,0.056-0.012,0.104C4.62,27.548,4.62,27.507,4.618,27.457z"/>
					<path fill="#1F1F1F" d="M6.269,29.501c-0.008,0.008,0.208,0.324,0.208,0.324C6.385,29.682,6.32,29.581,6.269,29.501z"/>
					<path fill="#1F1F1F" d="M7.76,30.888c0.049-0.025,0.077-0.053,0.102-0.076L7.86,30.808L7.76,30.888z"/>
					<path fill="#1F1F1F" d="M10.942,3.917c0.023-0.016,0.045-0.032,0.063-0.05C11.148,3.746,11.04,3.807,10.942,3.917z"/>
					<path fill="#1F1F1F" d="M4.309,10.635c0.012-0.108,0.025-0.217,0.057-0.321C4.253,10.442,4.175,10.549,4.309,10.635z"/>
					<polygon fill="#1F1F1F" points="21,0.674 20.999,0.679 21.065,0.669 					"/>
					<path fill="#1F1F1F" d="M4.619,9.95c-0.142,0.109-0.212,0.234-0.252,0.364C4.461,10.208,4.576,10.09,4.619,9.95z"/>
					<path fill="#1F1F1F" d="M15.93,33.827l0.095,0.022c0-0.02,0.008-0.033,0.016-0.044L15.93,33.827z"/>
					<path fill="#1F1F1F" d="M16.041,33.806l0.109-0.021C16.102,33.778,16.06,33.776,16.041,33.806z"/>
					<path fill="#1F1F1F" d="M16.38,33.739l-0.229,0.045C16.228,33.794,16.323,33.813,16.38,33.739z"/>
					<path fill="#1F1F1F" d="M13.327,33.283l-0.052,0.094C13.296,33.359,13.313,33.329,13.327,33.283z"/>
					<path fill="#1F1F1F" d="M12.536,33.11c0.18,0.07,0.412,0.36,0.695,0.34l0.043-0.073C13.111,33.511,12.755,32.998,12.536,33.11z
						"/>
					<path fill="#1F1F1F" d="M9.948,30.766l0.522,0.365c-0.053-0.151-0.117-0.346,0.146-0.243
						C10.061,30.238,10.656,31.185,9.948,30.766z"/>
					<path fill="#1F1F1F" d="M8.379,29.63c0.306,0.143,0.088-0.13,0.14-0.17C8.288,29.426,8.227,29.416,8.379,29.63z"/>
					<path fill="#1F1F1F" d="M3.367,17.299l0.253,0.053C3.598,17.094,3.521,17.341,3.367,17.299z"/>
					<polygon fill="#1F1F1F" points="2.483,14.33 2.277,14.562 2.48,14.744 					"/>
					<path fill="#1F1F1F" d="M4.723,13.349v0.115c0,0,0.037-0.428,0.048-0.424C4.76,13.035,4.723,13.349,4.723,13.349z"/>
					<path fill="#1F1F1F" d="M24.084,2.837l-0.102-0.308C23.807,2.602,23.798,2.958,24.084,2.837z"/>
					<path fill="#1F1F1F" d="M19.446,2.848c-0.156-0.119-0.481-0.13-0.618,0.07C19.07,2.871,19.337,2.921,19.446,2.848z"/>
					<polygon fill="#1F1F1F" points="16.635,12.278 16.461,12.413 16.809,12.267 					"/>
				</g>
			</g>
		</g>
		<g>
			<g>
				<g>
					<path fill="#1F1F1F" d="M50.456,33.746c0.074-0.086,0.033-0.278-0.173-0.248l-0.15,0.326L50.456,33.746z"/>
					<path fill="#1F1F1F" d="M49.093,33.084c-0.245,0.152-0.546,0.423-0.41,0.732c0.264-0.309,0.313-0.174,0.59-0.543
						c0.206-0.031,0.354,0.119,0.314,0.239c0.075-0.082,0.318,0.084,0.434-0.119c-0.263-0.266-0.59-0.288-0.954-0.09
						C48.994,33.229,49.073,33.145,49.093,33.084z"/>
					<path fill="#1F1F1F" d="M35.439,21.562c0,0-0.021,0.129-0.019,0.129C35.433,21.654,35.439,21.61,35.439,21.562z"/>
					<path fill="#1F1F1F" d="M37.888,10.322c-0.043,0.078-0.037,0.127-0.015,0.148C37.901,10.391,37.924,10.323,37.888,10.322z"/>
					<path fill="#1F1F1F" d="M39.425,9.041c-0.034,0.026-0.062,0.047-0.093,0.071C39.384,9.1,39.425,9.079,39.425,9.041z"/>
					<path fill="#1F1F1F" d="M35.439,21.562l0.062-0.332C35.392,21.224,35.443,21.404,35.439,21.562z"/>
					<path fill="#1F1F1F" d="M46.236,33.554c0.073-0.001,0.137-0.021,0.197-0.05l-0.177,0.001L46.236,33.554z"/>
					<path fill="#1F1F1F" d="M37.471,26.287l0.048,0.081c0.046,0.003,0.098,0.001,0.152-0.006L37.471,26.287z"/>
					<path fill="#1F1F1F" d="M40.073,29.15c-0.06-0.065-0.262,0.132-0.366,0.204c0.112-0.056,0.198-0.057,0.271-0.023
						C40.012,29.29,40.044,29.233,40.073,29.15z"/>
					<path fill="#1F1F1F" d="M45.543,32.256l0.122-0.016C45.633,32.244,45.581,32.251,45.543,32.256z"/>
					<path fill="#1F1F1F" d="M36.341,23.737c0.038-0.02,0.067-0.045,0.085-0.065C36.391,23.683,36.364,23.707,36.341,23.737z"/>
					<path fill="#1F1F1F" d="M55.539,33.778c-0.002-0.021-0.01-0.031-0.013-0.048C55.508,33.765,55.505,33.785,55.539,33.778z"/>
					<path fill="#1F1F1F" d="M50.456,33.009l0.066-0.018c0.007-0.054,0.014-0.106,0.014-0.158L50.456,33.009z"/>
					<path fill="#1F1F1F" d="M42.405,7.085c-0.007,0.002-0.009,0.003-0.016,0.005C42.331,7.17,42.371,7.136,42.405,7.085z"/>
					<path fill="#1F1F1F" d="M42.675,7.068c0.486-0.097-0.29,0.69,0.375,0.471C42.926,7.502,43.182,6.834,42.675,7.068z"/>
					<path fill="#1F1F1F" d="M46.133,33.496c-0.058-0.009-0.116-0.018-0.175-0.032C46.036,33.489,46.09,33.499,46.133,33.496z"/>
					<path fill="#1F1F1F" d="M43.05,7.539l0.001,0.002l0.066-0.023C43.09,7.526,43.073,7.532,43.05,7.539z"/>
					<path fill="#1F1F1F" d="M50.09,3.858c-0.028-0.044-0.069-0.074-0.113-0.103C49.986,3.783,50.013,3.813,50.09,3.858z"/>
					<path fill="#1F1F1F" d="M43.976,5.54l0.16-0.031C44.068,5.512,44.018,5.524,43.976,5.54z"/>
					<path fill="#1F1F1F" d="M53.291,2.889c0.089,0.009,0.123,0.043,0.235-0.011c-0.013-0.013-0.024-0.021-0.04-0.029
						C53.448,2.893,53.394,2.919,53.291,2.889z"/>
					<path fill="#1F1F1F" d="M56.763,2.551c-0.021-0.021-0.046-0.035-0.067-0.054c-0.035,0.006-0.075,0.014-0.11,0.02L56.763,2.551z
						"/>
					<path fill="#1F1F1F" d="M64.645,26.752c-0.106,0.045-0.203,0.057-0.3,0.054C64.548,26.837,64.345,27.39,64.645,26.752z"/>
					<path fill="#1F1F1F" d="M46.262,33.397c-0.034,0.066-0.07,0.095-0.13,0.099l0.124,0.009
						C46.275,33.466,46.284,33.428,46.262,33.397z"/>
					<path fill="#1F1F1F" d="M53.14,0.669l0.583-0.041C53.558,0.625,53.347,0.64,53.14,0.669z"/>
					<path fill="#1F1F1F" d="M49.985,9.682l0.135-0.041C50.066,9.638,50.018,9.648,49.985,9.682z"/>
					<path fill="#1F1F1F" d="M55.437,0.427c0.111,0.09,0.225,0.138,0.341,0.165c0.022-0.024,0.048-0.044,0.062-0.078L55.437,0.427z"
						/>
					<path fill="#1F1F1F" d="M64.342,26.806h0.004H64.342z"/>
					<path fill="#1F1F1F" d="M62.366,30.504c0.461-0.405-0.047-0.458-0.102-0.693c0.403-0.588,0.419-0.052,0.725-0.104
						c0.249-0.396,0.197-0.875,0.396-1.137c0.063,0.018,0.119-0.021,0.135,0.085c0.016-0.283,0.24-0.546,0.406-0.864
						c0.168-0.315,0.332-0.648,0.3-0.966c0.049-0.02,0.086-0.023,0.116-0.02c-0.209-0.007-0.381-0.083-0.492-0.158
						c0.114-0.227-0.022-0.522,0.238-0.508c-0.066,0.14,0.017,0.191,0.056,0.292l0.01-0.29c0.413-0.081-0.034,0.386,0.197,0.497
						c0.104-0.55,0.104-1.194,0.281-1.551c0.175,0.01,0.135,0.246,0.105,0.428c-0.039,0.177-0.075,0.299,0.173,0.096l-0.368,0.54
						c0.688-0.246-0.189,0.351,0.518,0.152c0.453-0.77,0.159-0.975,0.514-1.77c-0.133-0.229-0.285-0.004-0.425-0.23
						c-0.155-1.202,1.051-0.796,0.646-1.741c-0.215-0.249-0.63-0.347-0.385-0.949l0.38,0.212c0.03-0.817-0.563-0.444-0.338-1.287
						c0.157,0.135,0.156,0.619,0.196,0.495c0.274-0.563-0.229-0.372-0.262-0.781l0.326-0.121c-0.155-0.862-0.568-1.753-0.94-2.625
						c0.114,0.016,0.272,0.14,0.292-0.107c-0.521-1.114-1.039-2.413-1.668-3.495l-0.521-0.162c-0.065-0.082-0.031-0.241,0.086-0.191
						c-0.234-0.427-0.146,0.104-0.386,0.023c-0.204-0.165-0.134-0.359,0.052-0.305c-0.762-0.448-2.086-1.066-2.673-1.731
						l0.185,0.009c-0.519-0.455-0.93,0.203-1.342-0.31l0.125,0.001c-1.245-0.693-2.786-0.819-3.754-1.401
						c-0.255,0.355-1.345-0.345-1.487,0.225c-0.754-0.355-0.524-0.427-1.637-0.667c-0.299-0.027-0.44,0.386-0.8,0.462L51.225,9.55
						l-0.48,0.349l-0.287-0.354L50.12,9.641c0.138,0.011,0.301,0.123,0.286,0.212c-0.516,0.138-1.317-0.089-1.36-0.234l-1.227,0.47
						c0.001-0.126,0.205-0.204,0.36-0.31c-0.618,0.428-0.194-0.306-0.758,0.102c0.099,0.043-0.003,0.192-0.001,0.257
						c-0.347-0.091-1.055,0.122-1.541,0.354l0.028-0.231c-0.488,0.09-0.942,0.388-1.421,0.631c-0.236,0.129-0.476,0.259-0.717,0.391
						l-0.688,0.471c0.387-0.138,0.497,0.229,0.257,0.432l-0.284-0.201c-0.06,0.281,0.343-0.081,0.131,0.356
						c-0.353,0.19-0.439-0.151-0.3-0.373l-0.352,0.372c-0.082-0.062-0.015-0.169-0.062-0.287c-0.025,0.143-0.262,0.189-0.483,0.283
						c-0.211,0.104-0.424,0.236-0.421,0.47l-0.085-0.053c-0.413,0.38-0.711,0.665-0.948,0.96c-0.222,0.31-0.421,0.6-0.701,0.951
						c0.208,0.189-0.062,0.419-0.045,0.754c-0.41,0.457-0.947,0.932-1.343,1.571c0.722,0.17,1.444,0.341,2.251,0.532v-0.064
						c-0.132-0.461-0.235-0.129-0.398-0.339c0.257-0.04,0.242-0.7,0.422-0.354c-0.057-0.797,0.018-0.993-0.069-2.033
						c-0.117,0.089-0.179,0.207-0.256,0.126c-0.029-0.197,0.194-0.394,0.304-0.342l0.014,0.052
						c-0.037-0.588,0.274-1.204,0.691-1.696c0.354-0.525,0.778-0.931,0.757-1.452l-0.001,0.057c0,0,0.042-0.239,0.105-0.473
						c0.079-0.228,0.157-0.457,0.157-0.457c0.286-0.324,0.009,0.318,0.323,0.152c0.106-0.529,0.355-0.849,0.647-1.091
						c0.287-0.248,0.523-0.498,0.746-0.871c0.514,0.07,0.881-0.337,1.338-0.723c0.458-0.378,0.909-0.842,1.428-0.834l-0.137-0.127
						c0.105-0.263,0.29-0.05,0.452-0.098c-0.089-0.108-0.292-0.014-0.219-0.169c1.576-1.174,3.738-1.501,5.691-1.835
						c0.72-0.118,0.196-0.986,1.208-0.772l-0.191,0.379c0.682-0.37,1.448-0.48,2.207-0.575c0.755-0.123,1.52-0.14,2.245-0.378
						c-0.082,0.083-0.077,0.182-0.221,0.193c0.213,0.137,0.627,0.061,0.894-0.063l1.463-0.682l-0.22-0.634
						c-0.056-0.16-0.129-0.271-0.198-0.272c0.021-0.238,0.177-0.056,0.276-0.203c0.037-0.084,0.034-0.179,0.014-0.277l-0.348-1.674
						l-1.087,0.264c-0.286,0.07-0.589,0.282-0.725,0.11c-0.031-0.038,0.092-0.081,0.152-0.102c-0.214,0.125-1.012,0.011-0.793,0.279
						c-0.594-0.105-1.114,0.158-1.593,0.047c-0.28,0.335-1.019-0.059-1.073,0.386c-0.001-0.454-1.069-0.278-1.409,0.004
						c0.106-0.153-0.34-0.094-0.22-0.303c-0.423,0.067-0.799,0.206-0.69,0.425c-0.871-0.44-1.474,0.692-2.039,0.1
						c-1.206,0.465-2.29,0.967-3.35,1.378c-0.101-0.465,1.2-0.381,1.024-0.829c-1.016,0.446-1.474,1.049-2.521,1.298
						c-0.285,0.035,0.079-0.236,0.143-0.34c-0.487,0.253-0.975,0.458-1.445,0.67c-0.467,0.216-0.938,0.392-1.306,0.746
						c-0.017-0.039,0.055-0.131,0.127-0.21c-0.162,0.107-0.425,0.16-0.31,0.331l0.138-0.141c0.399,0.119-0.37,0.917-0.316,1.068
						c-0.008-0.668-0.899,0.332-0.829-0.557c-0.093,0.096-0.181,0.257-0.085,0.359c-0.183,0.057-0.278,0.019-0.192-0.208
						c-0.531,0.463-0.196,0.525-0.714,0.871c-0.056-0.083,0.026-0.187,0.015-0.32C40.569,5.664,40.427,6,39.947,6.233
						c-0.012-0.065-0.108-0.092,0.021-0.181c-0.368,0.267-0.556,0.656-0.792,0.983c-0.218,0.35-0.503,0.625-0.885,0.941
						c-0.114-0.519-0.327,0.153-0.638-0.059L37.374,8.4l0.28-0.043c-0.315,0.355-0.396,0.814-0.702,1.086l0.075-0.382l-0.441,0.773
						l0.396-0.33c-0.107,0.5,0.411,0.235-0.015,0.677c0.037-0.122-0.258,0.371-0.58,0.456v-0.001
						c-0.041,0.244-0.006,0.525-0.246,0.779c-0.145,0.024-0.333-0.257-0.429-0.242c0.179,0.349-0.421,1.026-0.224,1.417
						c-0.044-0.12-0.216-0.197-0.269-0.184l0.174,0.275c-0.143,0.173-0.19,0.191-0.325,0.101c-0.25,0.603,0.51-0.031,0.075,0.625
						c0-0.063-0.046-0.048-0.042-0.179c-0.173,0.349-0.252,0.717-0.33,1.071c-0.044,0.363-0.065,0.719-0.195,1.052
						c-0.409,0.136,0.025-0.629-0.329-0.458c-0.058,0.521-0.07,1.066-0.04,1.598c0.06,0.535,0.103,1.052,0.029,1.541l0.053-0.182
						c0.525,0.148-0.325,0.723-0.032,1.223c-0.044-0.12-0.301-0.153-0.24-0.121c-0.062,0.681,0.169,1.385,0.491,2.362l-0.15-0.105
						c-0.089,0.415,0.097,1.048,0.139,1.482c0.161,0.095,0.194,0.339,0.354,0.146c-0.257,0.743,0.113,1.327,0.4,1.868
						c0.368,0.522,0.698,1.001,0.708,1.669c-0.074-0.122-0.278-0.238-0.221-0.141l0.628,0.817c0.154-0.191,0.05-0.189,0.099-0.461
						c0.183,0.039,0.411,0.219,0.534,0.426c-0.347-0.299-0.322,0.211-0.303,0.44c0.039-0.066,0.144-0.058,0.192-0.111
						c-0.021,0.655,0.431-0.2,0.628,0.521l-0.118,0.045c0.21,0.172,0.467,0.269,0.643,0.486c-0.119,0.263-0.286-0.118-0.465,0.009
						c0.294,0.291,0.914,0.229,0.97,0.674c-0.17-0.069-0.338-0.244-0.51-0.318c0.046,0.504,0.14,0.487,0.312,0.739l-0.016-0.026
						c-0.018,0.016,0.427,0.566,0.427,0.566l-0.08-0.179c0.847-0.208,0.864,0.6,1.706,0.581c-0.788-0.006-0.232,0.146-0.445,0.368
						c0.099,0.166,0.273,0.396,0.163,0.425c0.408-0.03,0.355,0.494,0.954,0.39c-0.029,0.095,0.307,0.171,0.126,0.353
						c0.419,0.133-0.012-0.197,0.08-0.288c0.372-0.003,0.65,0.287,1.006,0.525c0.354,0.234,0.763,0.474,1.274,0.431
						c0.83,0.055,1.062-0.223,1.792-0.183c0.202,0.204-0.279,0.3-0.279,0.29c0.35,0.247,0.66,0.26,1.048,0.229
						c-0.09,0.068-0.027,0.154,0.066,0.284c0.305,0.034,0.261-0.31,0.627-0.091c-0.083,0.094-0.198,0.248-0.362,0.327
						c0.37-0.006,0.75-0.16,1.126-0.203c0.078,0.18-0.253,0.23-0.399,0.325c0.428-0.027,1.099-0.03,1.247-0.284l-0.255-0.125
						c0.15,0.004,0.057,0.238-0.06,0.274c-0.377,0.17-0.501-0.15-0.509-0.249l0.267-0.033c-0.196-0.603-1.048-0.006-1.566-0.167
						l0.286-0.367l-0.587,0.234c-0.092-0.128-0.118-0.37,0.144-0.381c-0.318-0.273-0.352,0.08-0.613-0.205
						c-0.025-0.041-0.006-0.058,0.029-0.067c-0.001,0.008-0.378,0.043-0.377,0.035c0.089-0.064,0.016-0.301,0.21-0.182
						c-0.543-0.409-1.074,0.011-1.214-0.358l0.06-0.009c-0.888-0.14-0.177,0.275-0.937,0.372c0,0-0.039-0.219-0.077-0.437
						c-0.033-0.216-0.066-0.433-0.066-0.433l-0.198,0.25c-0.081-0.044-0.24-0.132-0.159-0.231c-0.402,0.064,0.001,0.144-0.265,0.25
						c-0.284-0.434-1.159-0.451-1.014-0.917c-0.257,0.128,0.289,0.353-0.213,0.273c0.138-0.5-0.513-0.213-0.726-0.64
						c0.255-0.155,0.485,0.171,0.289-0.25c-0.453,0.241-0.595-0.493-0.878-0.649c-0.229,0.262-0.677-0.322-1.14-0.648
						c0.119-0.072-0.617-0.88-0.784-1.396l0.058-0.025c-0.34,0.138-0.646-0.312-0.898-0.616c0.195-0.107,0.298-0.089,0.493,0.029
						c-0.009,0.006-0.188-0.306-0.188-0.306c-0.143-0.011-0.254-0.076-0.41-0.259l0.282-0.061c-0.27-0.385-0.759-0.694-0.84-1.346
						c-0.253,0.061-0.439,0.759-0.885,0.189c0.117-0.077,0.327-0.188,0.452-0.048c-0.04-0.046-0.192-0.147-0.186-0.276l0.326,0.158
						c-0.021-0.303-0.248-0.062-0.313-0.288c0.186-0.066,0.078-0.213,0.235-0.236c0.037,0.048-0.019,0.222,0.096,0.27
						c-0.068-0.251-0.042-0.593,0.063-0.734c-0.099,0.058-0.251,0.087-0.335-0.085c-0.168-0.46,0.174-0.23,0.183-0.524
						c-0.179-0.069-0.105-0.408-0.393-0.343c-0.029-0.141,0.099-0.198,0.164-0.271c-0.181-0.213-0.294-1.134-0.541-0.8l-0.006,0.066
						c-0.006-0.011-0.013-0.023-0.021-0.038c0.001,0.003,0,0,0.001,0.003l-0.001-0.003c-0.416-0.794-0.083-1.753-0.214-2.571
						l0.099-0.002c-0.157-0.495-0.067-1.101-0.254-1.468c0.009-0.15,0.201-0.338,0.314-0.268c-0.051-0.38-0.162-0.438,0.037-0.965
						c0.144,0.397,0.158-0.112,0.101,0.401c0.099-0.483,0.317-0.551,0.136-1.108c0.217,0.215,0.381-0.296,0.349-0.534l-0.239,0.294
						c0.012-0.261,0.075-0.479,0.139-0.7l0.301,0.199c0.269-0.43,0.297-0.856,0.277-1.296c-0.001-0.429,0.009-0.854,0.504-1.035
						c-0.098-0.326-0.386,0.405-0.533,0.094c0.248-0.398,0.882-0.602,0.941-0.72c0.416-0.449-0.181-0.749,0.298-1.219
						c-0.145,0.002-0.46-0.098-0.269-0.577c0.303-0.367,0.72-0.176,0.639,0.114c-0.053,0.095-0.112,0.117-0.143,0.089
						c-0.047,0.146-0.111,0.332,0.095,0.257l-0.065-0.115c0.225-0.115,0.555-0.628,0.628-0.39c0.13-0.32-0.077-0.244-0.261-0.069
						c0.481-0.346,0.593-0.672,1.062-1.042c-0.108,0.024-0.269-0.005-0.205-0.076c0.684-0.549,0.1-0.44,0.505-0.892
						c0.38-0.092,0.201,0.399,0.55-0.109c0.354-0.148,0.262,0.19,0.221,0.354c0.247-0.533,0.839-0.542,1.121-0.663l-0.171,0.235
						c0.102-0.14,0.215-0.217,0.33-0.295l-0.272-0.1c0.161-0.062,0.276-0.141,0.33-0.059c0.052-0.226-0.338-0.245-0.176-0.618
						c0.253-0.028,0.497-0.504,0.729-0.284c-0.635,0.315,0.232,0.223-0.221,0.603c0.071-0.096,0.186-0.174,0.343-0.234
						c0.039,0.016,0.017,0.069-0.011,0.109c0.701-0.119,0.071-0.46,0.684-0.804c0.011,0.197,0.307,0.215,0.386,0.127
						c-0.244,0.132-0.263-0.192-0.099-0.439c0.461-0.097,0.38-0.336,0.601-0.429c-0.003-0.007-0.27,0.07-0.27,0.07
						c-0.002-0.209,0.213-0.293,0.487-0.468c0.084,0.114-0.227,0.204-0.095,0.212c0.195-0.428,0.868-0.032,1.231-0.424
						c0.255,0.018,0.148,0.299,0.36,0.293c0.419-0.425,0.642,0.024,1.113-0.351c-0.236-0.17-0.247-0.104,0.063-0.459l-0.845,0.474
						l0.46-0.529c-0.277,0.094-0.526,0.344-0.705,0.363c0.207-0.279,0.202-0.214-0.003-0.352c0.504,0.203,0.681-0.459,1.201-0.386
						l0.175,0.565c0.713,0.006,1.076-0.644,1.981-0.745L48.828,3.78c0.057-0.259,0.528-0.178,0.787-0.347
						c0.019,0.196,0.213,0.225,0.361,0.322c-0.047-0.14,0.645-0.117,0.645-0.52l0.446,0.175c0.726-0.043,0.711-0.725,1.426-0.754
						c-0.176,0.242,0.16,0.335-0.278,0.553c0.23-0.031,0.443-0.025,0.427-0.161c0.152,0.104,0.605-0.355,0.845-0.2
						c0.086-0.1,0.092-0.31,0.356-0.332c0.034,0.036,0.011,0.097,0.011,0.097c-0.012-0.101,0.396-0.186,0.141-0.375
						c0.791,0.552,2.03-0.243,2.702,0.258c0.509-0.086,1.127-0.175,1.594-0.208c-0.028,0.06,0.001,0.098-0.088,0.082
						c0.36,0.087,0.438-0.102,0.566-0.258c-0.147-0.145-0.3-0.295-0.453-0.445c0.121,0.102,0.219,0.236,0.127,0.566
						c-0.319,0.38-0.173-0.394-0.293-0.157c-0.237,0.038-0.29,0.167-0.279,0.343c0.261-0.276,0.55-0.582,0.84-0.889
						c-0.308,0.045-0.733,0.292-1.075,0.081l0.12-0.049c-0.411-0.18-0.93,0.313-1.564,0.35c0,0,0.024-0.062-0.008-0.098
						c-0.393,0.393-1.184,0.621-1.769,0.8c0.144-0.278,0.251-0.173,0.092-0.411c-0.263,0.083,0.147,0.384-0.37,0.561
						c-0.198-0.1-0.606-0.136-0.715-0.395l0.506-0.124c-0.331-0.294-0.658,0.154-0.938,0.15l0.001-0.159
						c-0.774,0.217-0.69,0.591-1.514,0.808l0.115,0.089c-0.336,0.503-0.435-0.102-0.796,0.304l-0.254-0.337
						c-0.276,0.159-0.896,0.729-1.382,0.98c0.184-0.381,0.741-0.751,1.068-1.056c-0.291,0.103-0.979,0.396-1.059,0.633
						c0.103-0.079,0.216-0.225,0.352-0.211c-0.243,0.436-0.655,0.709-1.202,0.968c-0.208-0.729-1.529,0.462-2.185,0.216
						c-0.818,0.784-1.957,1.049-2.94,1.956c0.735,0.144-0.277,0.268,0.19,0.671c-0.195,0.226-0.285,0.292-0.332,0.281
						c-0.001,0-0.24,0.073-0.456,0.18c-0.221,0.107-0.44,0.214-0.44,0.214c-0.279,0.042,0.098-0.308-0.021-0.383
						c-0.492,0.473-0.381,0.035-0.812,0.268c0.229,0.077,0.072,0.379-0.245,0.625c0,0,0.578-0.231,0.579-0.231
						c-0.377,0.897-0.912,0.335-1.236,1.306l0.02-0.36c-0.238,0.439-0.974,1.613-0.75,2.247c-0.096,0.05-0.293,0.09-0.25-0.132
						c-0.242,0.546-0.419,1.202-0.474,1.833c-0.046,0.635-0.166,1.199-0.348,1.628l-0.135-0.113
						c0.013,0.229,0.226,0.421,0.041,0.671c-0.06-0.021-0.137-0.107-0.158-0.006c0.046,0.125,0.16,0.604,0.085,0.886l-0.16-0.259
						c-0.139,0.697,0.038,1.214,0.213,1.701l1.326,3.692l0.534-3.252c0.048-0.288,0.099-0.584,0.24-0.882
						c0.387,0.245,0.87-0.358,1.183-0.58l0.041,0.047c0.379-0.395,0.58-0.832,0.815-1.243c0.254-0.388,0.491-0.804,0.825-1.228
						c0.416,0.004,0.891-0.243,1.385-0.551c0.518-0.266,1.112-0.506,1.61-0.61c-0.168-0.004-0.108-0.341,0.062-0.427
						c0.263,0.014,0.562-0.489,0.645-0.093l-0.086,0.018c0.298,0.329,0.726,0.071,1.104-0.014l-0.05-0.525
						c0.604,0.295,1.24,0.1,1.856-0.063c0.622-0.111,1.201-0.231,1.495,0.098c0.251-0.15,0.565-0.162,0.822-0.276l-0.019,0.283
						c0.7,0.089,1.041,0.135,1.898,0.168l-0.196,0.184c0.47,0.059,0.712-0.74,1.173-0.672l0.059,0.439
						c0.853,0.14,1.532,0.733,2.424,0.66c-0.036,0.054-0.104,0.159-0.233,0.13c0.383,0.115,1.207,0.863,1.362,0.276
						c-0.17,0.341,0.711,0.438,1.174,0.576l-0.214,0.187c0.498-0.064,0.582-0.141,1.064,0.123c0.069,0.116-0.065,0.245-0.14,0.076
						c0.206,0.396,0.416,0.032,0.692,0.496l-0.266-0.006c0.303,0.306,0.328,0.228,0.645,0.273c0.269,0.14,0.492,0.688,0.3,0.895
						c0.155-0.043,0.46,0.045,0.543,0.302c-0.062,0.079-0.164,0.032-0.214,0.009c0.133,0.341,0.299,0.55,0.478,0.733
						c0.168,0.186,0.34,0.351,0.289,0.645c-0.082,0.045-0.113,0.092-0.126,0.142c-0.185-0.541-0.426-0.933-0.373-0.913
						c-0.225,0.126-0.069,0.534-0.541,0.386c0.344,0.194,0.959,0.621,0.994,1.088c-0.017,0.027-0.032,0.055-0.064,0.082
						l-0.043-0.033c0.015,0.101,0.063,0.181,0.122,0.253c-0.007,0.149-0.016,0.244,0.014,0.376
						c-0.203,0.105,0.035,0.517,0.038,0.749c0.274-0.069,0.272,0.241,0.462-0.082c-0.016,0.041-0.04-0.038-0.073-0.189
						c-0.015-0.032-0.03-0.071-0.052-0.091l0.028,0.011c-0.042-0.146-0.098-0.338-0.159-0.555c0.182,0.14,0.348,0.308,0.259,0.591
						c0.199,0.083,0.397,0.188,0.495,0.25c-0.342,0.401-0.451,1.025-0.71,1.13c0.086,0.345,0.157,0.765,0.213,1.146
						c0.05,0.381,0.15,0.737,0.401,0.995c0.043,0.216-0.188,0.218-0.28,0.281c-0.036-0.123,0.006-0.257-0.073-0.329
						c0.073,0.414-0.132,1.181,0.189,1.361c-0.31,0.457-0.248-0.359-0.39,0.331l-0.082-0.121c-0.446,0.575-0.457,1.119-0.501,1.756
						c-0.05,0.3-0.111,0.613-0.25,0.912c-0.146,0.293-0.416,0.544-0.786,0.741c0.099-0.057,0.147-0.087,0.21-0.067
						c-0.31,0.324-0.671,0.603-0.961,0.95c-0.325,0.313-0.646,0.642-0.989,0.949c-0.704,0.587-1.493,1.12-2.413,1.238
						c-0.499,0.105-0.444,0.36-0.673,0.634l-0.214-0.245l-0.379,0.506c-0.314,0.259-0.693,0.174-1.073,0.106
						c-0.383-0.064-0.756-0.076-1.179,0.232l0.161,0.177c-0.345,0.024-1.06,0.318-1.036,0.076c-0.029,0.04-0.084,0.221-0.232,0.131
						l-0.032-0.156l-0.814,0.36c-0.665-0.051,0.05-0.615-0.893-0.605c-0.341,0.072-0.991,0.495-0.86,0.597
						c0.144,0.003,0.37,0.085,0.386,0.243l-0.332,0.094c-0.054,0.468-0.337,0.953,0.536,1.249l0.588-0.306l0.207,0.219l-0.507,0.032
						c0.298,0.202,0.474,0.008,0.667-0.129c0.057,0.116,0.147,0.19,0.272,0.223l0.546-0.506c0.093,0.173-0.227,0.388,0.184,0.444
						c0.252-0.235-0.311-0.377,0.126-0.561c0.31,0.173,0.256,0.371,0.562,0.13c0.064,0.109,0.006,0.198-0.121,0.275
						c0.278-0.197,0.785-0.206,0.89-0.478c0.353,0.218,0.977-0.285,1.054,0.146c0.069-0.128,0.432-0.474,0.69-0.562
						c-0.332,0.665,1.002-0.296,1.062,0.267c0.206-0.55,1.221-0.72,1.717-1.253c-0.014,0.054-0.048,0.152-0.113,0.156
						c0.36-0.136,0.519-0.08,0.784-0.123c-0.153-0.374,0.33-0.721,0.445-1.115c0.592,0.045,0.023,0.547,0.339,0.769
						c-0.189-0.254,0.503-0.744,0.216-0.865c0.431-0.019,0.317-0.087,0.669,0.062c-0.247-0.417,0.211-0.288,0.246-0.714
						c0.554-0.164,0.409,0.252,0.746-0.244C62.635,30.018,62.374,30.508,62.366,30.504z M64.681,17.535l0.006-0.002
						c0.046,0.107,0.086,0.199,0.111,0.257C64.774,17.738,64.74,17.664,64.681,17.535z M64.258,16.485
						c0.056,0.126,0.128,0.282,0.187,0.455c-0.075,0.074-0.183,0.071-0.217-0.036C64.311,16.935,64.268,16.667,64.258,16.485z
						 M63.117,19.173c-0.075-0.136-0.034-0.196,0.017-0.229c0.022,0.066,0.052,0.145,0.098,0.246l0.037,0.01
						C63.213,19.197,63.16,19.191,63.117,19.173z"/>
					<path fill="#1F1F1F" d="M63.544,19.361c0.01,0.021,0.023,0.031,0.029,0.06c0.02-0.036,0.039-0.07,0.047-0.104
						c-0.034-0.012-0.068-0.024-0.1-0.036L63.544,19.361z"/>
					<path fill="#1F1F1F" d="M35.419,21.714l0.002-0.022c-0.008,0.019-0.015,0.038-0.029,0.051
						C35.402,21.726,35.41,21.724,35.419,21.714z"/>
					<polygon fill="#1F1F1F" points="51.221,9.479 51.225,9.55 51.321,9.483 					"/>
					<path fill="#1F1F1F" d="M36.695,27.457c-0.014,0.022-0.021,0.056-0.012,0.104C36.697,27.548,36.697,27.507,36.695,27.457z"/>
					<path fill="#1F1F1F" d="M38.346,29.501c-0.008,0.008,0.208,0.324,0.208,0.324C38.463,29.682,38.397,29.58,38.346,29.501z"/>
					<path fill="#1F1F1F" d="M39.837,30.888c0.05-0.026,0.077-0.053,0.102-0.076l-0.002-0.004L39.837,30.888z"/>
					<path fill="#1F1F1F" d="M43.018,3.917c0.023-0.015,0.045-0.032,0.062-0.049C43.224,3.746,43.117,3.807,43.018,3.917z"/>
					<path fill="#1F1F1F" d="M36.386,10.635c0.012-0.108,0.025-0.217,0.057-0.322C36.33,10.443,36.252,10.549,36.386,10.635z"/>
					<polygon fill="#1F1F1F" points="53.076,0.674 53.076,0.679 53.14,0.669 					"/>
					<path fill="#1F1F1F" d="M36.696,9.95c-0.142,0.109-0.212,0.234-0.253,0.363C36.538,10.208,36.653,10.09,36.696,9.95z"/>
					<path fill="#1F1F1F" d="M48.007,33.827l0.095,0.022c0.001-0.02,0.008-0.033,0.017-0.044L48.007,33.827z"/>
					<path fill="#1F1F1F" d="M48.118,33.806l0.109-0.021C48.178,33.778,48.136,33.776,48.118,33.806z"/>
					<path fill="#1F1F1F" d="M48.457,33.739l-0.229,0.045C48.304,33.794,48.4,33.813,48.457,33.739z"/>
					<path fill="#1F1F1F" d="M45.404,33.283l-0.053,0.094C45.372,33.359,45.39,33.329,45.404,33.283z"/>
					<path fill="#1F1F1F" d="M44.613,33.11c0.18,0.07,0.412,0.36,0.695,0.34l0.043-0.073C45.187,33.511,44.832,32.998,44.613,33.11z
						"/>
					<path fill="#1F1F1F" d="M42.025,30.766l0.521,0.365c-0.053-0.151-0.116-0.346,0.146-0.243
						C42.138,30.238,42.733,31.185,42.025,30.766z"/>
					<path fill="#1F1F1F" d="M40.456,29.63c0.306,0.143,0.088-0.13,0.14-0.17C40.365,29.426,40.304,29.416,40.456,29.63z"/>
					<path fill="#1F1F1F" d="M35.444,17.299l0.254,0.053C35.676,17.094,35.598,17.342,35.444,17.299z"/>
					<polygon fill="#1F1F1F" points="34.56,14.33 34.353,14.562 34.557,14.744 					"/>
					<path fill="#1F1F1F" d="M36.801,13.349v0.115c0,0,0.037-0.428,0.048-0.424C36.838,13.036,36.801,13.349,36.801,13.349z"/>
					<path fill="#1F1F1F" d="M56.16,2.837l-0.102-0.308C55.884,2.602,55.874,2.958,56.16,2.837z"/>
					<path fill="#1F1F1F" d="M51.521,2.848c-0.155-0.119-0.481-0.13-0.618,0.071C51.145,2.871,51.413,2.921,51.521,2.848z"/>
					<polygon fill="#1F1F1F" points="48.712,12.278 48.538,12.413 48.886,12.267 					"/>
				</g>
			</g>
		</g>
	</g>
</g>
</svg>
